<svg width="1200" height="600" viewBox="0 0 1200 600" fill="none" xmlns="http://www.w3.org/2000/svg">
  <defs>
    <linearGradient id="bg" x1="0" y1="0" x2="1200" y2="600" gradientUnits="userSpaceOnUse">
      <stop stop-color="#0f172a"/>
      <stop offset="1" stop-color="#0b1328"/>
    </linearGradient>
    <linearGradient id="card" x1="0" y1="0" x2="1" y2="1">
      <stop stop-color="#1d4ed8" stop-opacity="0.45"/>
      <stop offset="1" stop-color="#22c55e" stop-opacity="0.35"/>
    </linearGradient>
  </defs>
  <rect width="1200" height="600" rx="28" fill="url(#bg)"/>
  <circle cx="1020" cy="110" r="90" fill="#2563eb" fill-opacity="0.2"/>
  <circle cx="930" cy="170" r="48" fill="#22c55e" fill-opacity="0.2"/>
  <rect x="80" y="90" width="740" height="420" rx="22" fill="#111b35" stroke="#23345f"/>
  <rect x="120" y="130" width="300" height="64" rx="12" fill="#1a2748"/>
  <rect x="120" y="214" width="660" height="40" rx="10" fill="#182546"/>
  <rect x="120" y="274" width="660" height="40" rx="10" fill="#182546"/>
  <rect x="120" y="334" width="660" height="40" rx="10" fill="#182546"/>
  <rect x="120" y="394" width="300" height="72" rx="12" fill="url(#card)"/>
  <rect x="840" y="220" width="290" height="210" rx="18" fill="#101a32" stroke="#22345c"/>
  <rect x="876" y="258" width="218" height="20" rx="8" fill="#1d4ed8" fill-opacity="0.6"/>
  <rect x="876" y="292" width="170" height="20" rx="8" fill="#f59e0b" fill-opacity="0.7"/>
  <rect x="876" y="326" width="240" height="20" rx="8" fill="#22c55e" fill-opacity="0.7"/>
  <rect x="876" y="360" width="132" height="20" rx="8" fill="#ef4444" fill-opacity="0.7"/>
</svg>
